<?xml version="1.0" encoding="utf-8"?>
<!-- Generator: Adobe Illustrator 17.0.0, SVG Export Plug-In . SVG Version: 6.00 Build 0)  -->
<!DOCTYPE svg PUBLIC "-//W3C//DTD SVG 1.1//EN" "http://www.w3.org/Graphics/SVG/1.1/DTD/svg11.dtd">
<svg version="1.1" id="Layer_1" xmlns="http://www.w3.org/2000/svg" xmlns:xlink="http://www.w3.org/1999/xlink" x="0px" y="0px"
	 width="1088px" height="687.962px" viewBox="0 0 1088 687.962" enable-background="new 0 0 1088 687.962" xml:space="preserve">
<linearGradient id="SVGID_1_" gradientUnits="userSpaceOnUse" x1="463.7306" y1="93.5413" x2="799.9852" y2="530.4076">
	<stop  offset="0" style="stop-color:#9B68DA"/>
	<stop  offset="1" style="stop-color:#7F40C7"/>
</linearGradient>
<path fill="url(#SVGID_1_)" d="M1057.97,148.492C992.5,421.481,734.5,679.481,438.5,653.481c-35-3-70-11-103-25c-24-11-46-22-68-38
	c-32-23-56-47-78-80c-9-14-16-27-22-41c-3-9-6-17-9-26c-38-121,48-240,160-281c88-33,178-26,272-44c87-16,159-51,244-72
	c69-18,157-39,207.466,23.824C1054.576,90.705,1060.162,116.753,1057.97,148.492z"/>
<g>
	<path fill="#472C89" d="M114.774,336.798c49.688,0,56.686-27.293,56.686-51.789c0-19.596-2.799-39.192-5.598-58.786
		c-2.8-19.596-5.599-38.491-5.599-58.087c0-64.386,41.991-91.679,101.477-91.679h14.696v38.49H263.84
		c-41.29,0-55.287,22.395-55.287,60.186c0,16.097,2.1,32.893,4.899,49.689c2.799,17.496,4.899,34.292,4.899,53.188
		c0.7,44.79-18.895,67.185-50.388,75.583v1.399c31.492,7.699,51.088,31.492,50.388,76.282c0,18.897-2.099,36.392-4.899,53.188
		c-2.799,17.496-4.899,33.594-4.899,50.39c0,39.19,16.096,60.885,55.287,60.885h12.597v38.491h-14.696
		c-58.087,0-101.477-25.194-101.477-95.878c0-18.895,2.799-38.491,5.599-57.387c2.799-18.895,5.598-37.791,5.598-56.686
		c0-21.695-6.998-51.789-56.686-51.789V336.798z"/>
</g>
<g>
	<path fill="#27175B" d="M361.815,270.948h364.37c19.127,0,34.628,20.427,34.628,45.621v77.544
		c0,25.198-15.505,45.621-34.628,45.621h-364.37c-19.123,0-34.628-20.427-34.628-45.621V316.57
		C327.187,291.372,342.692,270.948,361.815,270.948z"/>
	<g>
		<path fill="#9B71FA" d="M489.193,305.633c0-0.348,0-0.699,0-1.047c0.021-0.088,0.053-0.179,0.067-0.267
			c0.288-1.767,1.209-3.046,2.853-3.819c7.621-3.584,15.508-6.394,23.698-8.355c7.452-1.788,15.006-2.863,22.661-3.204
			c0.594-0.028,1.198,0.032,1.781-0.14c2.498,0,4.993,0,7.491,0c0.474,0.172,0.973,0.098,1.458,0.119
			c3.605,0.155,7.199,0.471,10.776,0.949c4.828,0.643,9.599,1.577,14.313,2.8c7.494,1.946,14.735,4.592,21.734,7.905
			c1.163,0.552,1.954,1.434,2.431,2.614c0.172,0.425,0.225,0.878,0.348,1.318c0,0.429,0,0.861,0,1.289
			c-0.172,0.576-0.295,1.163-0.58,1.704c-2.572,4.87-5.407,9.578-8.516,14.12c-5.498,8.028-11.728,15.445-18.681,22.254
			c-3.127,3.064-6.373,5.99-9.75,8.773c-1.107,0.914-2.227,1.813-3.341,2.716c-0.116,0.07-0.239,0.127-0.341,0.207
			c-4.258,3.334-8.696,6.415-13.281,9.286c-0.249,0.155-0.411,0.134-0.643-0.01c-3.71-2.319-7.315-4.789-10.825-7.399
			c-0.935-0.696-1.827-1.447-2.804-2.087c-0.162-0.14-0.32-0.285-0.488-0.418c-6.728-5.298-12.975-11.106-18.726-17.451
			c-7.217-7.961-13.52-16.583-18.807-25.939C490.95,309.645,489.625,307.85,489.193,305.633z"/>
		<path fill="#9B71FA" d="M489.193,305.633c0-0.348,0-0.699,0-1.047c0.021-0.088,0.053-0.179,0.067-0.267
			c0.288-1.767,1.209-3.046,2.853-3.819c7.621-3.584,15.508-6.394,23.698-8.355c7.452-1.788,15.006-2.863,22.661-3.204
			c0.594-0.028,1.198,0.032,1.781-0.14c2.498,0,4.993,0,7.491,0c0.474,0.172,0.973,0.098,1.458,0.119
			c3.605,0.155,7.199,0.471,10.776,0.949c4.828,0.643,9.599,1.577,14.313,2.8c7.494,1.946,14.735,4.592,21.734,7.905
			c1.163,0.552,1.954,1.434,2.431,2.614c0.172,0.425,0.225,0.878,0.348,1.318c0,0.429,0,0.861,0,1.289
			c-0.172,0.576-0.295,1.163-0.58,1.704c-2.572,4.87-5.407,9.578-8.516,14.12c-5.498,8.028-11.728,15.445-18.681,22.254
			c-3.127,3.064-6.373,5.99-9.75,8.773c-1.107,0.914-2.227,1.813-3.341,2.716c-0.116,0.07-0.239,0.127-0.341,0.207
			c-4.258,3.334-8.696,6.415-13.281,9.286c-0.249,0.155-0.411,0.134-0.643-0.01c-3.71-2.319-7.315-4.789-10.825-7.399
			c-0.935-0.696-1.827-1.447-2.804-2.087c-0.162-0.14-0.32-0.285-0.488-0.418c-6.728-5.298-12.975-11.106-18.726-17.451
			c-7.217-7.961-13.52-16.583-18.807-25.939C490.95,309.645,489.625,307.85,489.193,305.633z"/>
		<path fill="#24D1DB" d="M598.807,405.048c0,0.348,0,0.699,0,1.047c-0.025,0.088-0.053,0.176-0.067,0.267
			c-0.288,1.767-1.209,3.046-2.853,3.819c-7.621,3.584-15.508,6.394-23.698,8.355c-7.452,1.788-15.006,2.863-22.661,3.204
			c-0.594,0.025-1.198-0.031-1.781,0.14c-2.498,0-4.993,0-7.491,0c-0.474-0.172-0.973-0.098-1.458-0.119
			c-3.605-0.155-7.199-0.471-10.776-0.949c-4.828-0.643-9.602-1.577-14.317-2.8c-7.494-1.946-14.735-4.592-21.734-7.905
			c-1.163-0.552-1.954-1.434-2.431-2.614c-0.172-0.425-0.225-0.878-0.348-1.318c0-0.429,0-0.861,0-1.289
			c0.172-0.576,0.295-1.163,0.58-1.704c2.572-4.87,5.407-9.578,8.516-14.12c5.498-8.028,11.728-15.445,18.681-22.254
			c3.127-3.064,6.373-5.99,9.75-8.773c1.107-0.914,2.227-1.813,3.341-2.716c0.112-0.07,0.235-0.126,0.341-0.207
			c4.258-3.334,8.696-6.415,13.281-9.286c0.249-0.155,0.411-0.134,0.643,0.01c3.71,2.319,7.315,4.789,10.825,7.396
			c0.935,0.696,1.827,1.447,2.804,2.087c0.162,0.14,0.32,0.285,0.488,0.418c6.728,5.298,12.975,11.106,18.726,17.451
			c7.217,7.961,13.52,16.583,18.807,25.939C597.054,401.035,598.378,402.834,598.807,405.048z"/>
		<path fill="#3632A8" d="M557.939,355.361c0.01-0.007,0.021-0.018,0.031-0.025l-0.014-0.011c-0.977-0.639-1.869-1.395-2.804-2.09
			c-3.51-2.61-7.115-5.08-10.825-7.396c-0.232-0.144-0.397-0.165-0.643-0.011c-4.585,2.871-9.022,5.952-13.281,9.286
			c-0.106,0.081-0.228,0.14-0.341,0.207c-0.01,0.007-0.021,0.018-0.032,0.025c0.003,0.003,0.007,0.007,0.007,0.007
			c0.98,0.643,1.873,1.398,2.807,2.094c3.51,2.61,7.115,5.08,10.825,7.399c0.232,0.144,0.397,0.165,0.643,0.011
			c4.585-2.871,9.022-5.952,13.281-9.286C557.7,355.488,557.823,355.431,557.939,355.361z"/>
	</g>
</g>
</svg>
