<?xml version="1.0" encoding="utf-8"?>
<!-- Generator: Adobe Illustrator 17.0.0, SVG Export Plug-In . SVG Version: 6.00 Build 0)  -->
<!DOCTYPE svg PUBLIC "-//W3C//DTD SVG 1.1//EN" "http://www.w3.org/Graphics/SVG/1.1/DTD/svg11.dtd">
<svg version="1.1" id="ac356da0-b129-4ca5-aecc-4700531dd101"
	 xmlns="http://www.w3.org/2000/svg" xmlns:xlink="http://www.w3.org/1999/xlink" x="0px" y="0px" width="1129px" height="663px"
	 viewBox="0 0 1129 663" enable-background="new 0 0 1129 663" xml:space="preserve">
<linearGradient id="SVGID_1_" gradientUnits="userSpaceOnUse" x1="22.811" y1="315.2243" x2="551" y2="315.2243">
	<stop  offset="0" style="stop-color:#F4DCEF"/>
	<stop  offset="1" style="stop-color:#F4B2EF"/>
</linearGradient>
<path fill="url(#SVGID_1_)" d="M472.714,245.301c83.218,61.636,103.279,186.245,44.751,272.88
	c-5.584,7.795-11.699,14.937-17.935,23.262c-12.229,14.284-24.746,25.55-38.977,36.042c-25.077,17.147-52.686,29.85-82.827,38.107
	c-13.5,3.394-26.227,5.073-40.136,6.632c-10.238,0.74-19.294,1.602-29.411,1.159c-12.483-0.686-23.783-1.251-36.144-3.12
	c-13.422-3.174-25.784-5.043-39.084-9.4c-52.02-17.307-95.073-46.244-129.932-85.099c-9.143-9.907-16.982-20.876-24.82-31.844
	C34.597,429.655,17.42,352.568,24.268,274.365c1.139-5.263,0.565-11.3,2.491-16.618c4.387-31.437,9.719-54.288,17.84-75.993
	c16.241-43.41,43.885-83.208,82.436-114.568S210.179,16.863,255.986,9.8C278.89,6.268,301.428,5.76,309.3,9.71
	c13.5,6.634,20.974,21.152,19.635,34.166c-8.606,72.044,17.052,142.233,88.912,165.185
	C433.865,217.925,452.559,229.29,472.714,245.301z"/>
<title>docu_tree</title>
<linearGradient id="SVGID_2_" gradientUnits="userSpaceOnUse" x1="593.6515" y1="338.6845" x2="1082.8871" y2="338.6845">
	<stop  offset="0" style="stop-color:#F0F0F0"/>
	<stop  offset="1" style="stop-color:#C4C4C4"/>
</linearGradient>
<path fill="url(#SVGID_2_)" d="M618.765,285.69c-25.662-100.328,37.41-209.652,137.483-239.926
	c9.25-2.523,18.501-4.205,28.592-6.728c18.501-3.364,35.32-4.205,52.98-3.364c30.274,2.523,59.708,10.091,88.3,22.706
	c12.614,5.887,23.547,12.614,35.32,20.183c8.41,5.887,15.978,10.932,23.547,17.66c9.25,8.41,17.66,15.978,26.07,25.229
	c8.41,10.932,16.819,20.183,24.388,31.956c29.433,46.252,44.571,95.869,47.093,148.008c0.841,13.455,0,26.911-0.841,40.366
	c-6.728,77.368-42.048,148.008-96.71,204.352c-4.205,3.364-7.569,8.41-12.419,11.319c-23.241,21.619-41.797,35.98-61.794,47.694
	C870.783,628.571,824.224,642,774.529,642c-49.696,0-96.255-13.429-136.247-36.856c-19.996-11.713-37.8-25.542-41.414-33.574
	c-6.286-13.666-2.923-29.644,6.328-38.895c52.139-50.457,76.527-121.097,35.265-184.249
	C631.628,331.442,624.298,310.829,618.765,285.69z"/>
<rect x="131" y="152.5" fill="#3F3D56" width="840" height="50"/>
<path fill="#00002F" d="M131,608.83c0,11.968,9.702,21.67,21.67,21.67l0,0h796.66c11.968,0,21.67-9.702,21.67-21.67l0,0V177.5H131
	V608.83z"/>
<path fill="#3F3D56" d="M949.33,117.5H152.67c-11.968,0-21.67,9.702-21.67,21.67l0,0v38.33h840v-38.33
	C971,127.202,961.298,117.5,949.33,117.5L949.33,117.5z"/>
<path opacity="0.2" enable-background="new    " d="M949.33,117.5H152.67c-11.968,0-21.67,9.702-21.67,21.67l0,0v38.33h840v-38.33
	C971,127.202,961.298,117.5,949.33,117.5L949.33,117.5z"/>
<circle fill="#FF5F38" cx="181" cy="147.5" r="13"/>
<circle fill="#FFEB07" cx="217" cy="147.5" r="13"/>
<circle fill="#63E200" cx="253" cy="147.5" r="13"/>
<path fill="#CDE8FF" d="M173.335,213.5h326.33c2.946,0,5.335,2.389,5.335,5.335v375.33c0,2.946-2.389,5.335-5.335,5.335h-326.33
	c-2.946,0-5.335-2.389-5.335-5.335v-375.33C168,215.889,170.389,213.5,173.335,213.5z"/>
<path fill="#414EB1" d="M541.759,272.5h237.288c2.628,0,4.759,2.452,4.759,5.476v11.047c0,3.025-2.131,5.476-4.759,5.476H541.759
	c-2.628,0-4.759-2.452-4.759-5.476v-11.047C537,274.952,539.131,272.5,541.759,272.5z"/>
<path fill="#414EB1" d="M542.476,352.5h405.047c3.025,0,5.476,2.452,5.476,5.476v4.047c0,3.025-2.452,5.476-5.476,5.476H542.476
	c-3.025,0-5.476-2.452-5.476-5.476v-4.047C537,354.952,539.452,352.5,542.476,352.5z"/>
<path fill="#414EB1" d="M542.476,396.5h405.047c3.025,0,5.476,2.452,5.476,5.476v4.047c0,3.025-2.452,5.476-5.476,5.476H542.476
	c-3.025,0-5.476-2.452-5.476-5.476v-4.047C537,398.952,539.452,396.5,542.476,396.5z"/>
<path fill="#414EB1" d="M542.476,440.5h405.047c3.025,0,5.476,2.452,5.476,5.476v4.047c0,3.025-2.452,5.476-5.476,5.476H542.476
	c-3.025,0-5.476-2.452-5.476-5.476v-4.047C537,442.952,539.452,440.5,542.476,440.5z"/>
<path fill="#414EB1" d="M542.476,484.5h405.047c3.025,0,5.476,2.452,5.476,5.476v4.047c0,3.025-2.452,5.476-5.476,5.476H542.476
	c-3.025,0-5.476-2.452-5.476-5.476v-4.047C537,486.952,539.452,484.5,542.476,484.5z"/>
<path fill="#412DB1" d="M546.856,524.707h103.709c5.444,0,9.856,5.814,9.856,12.985v22.071c0,7.172-4.413,12.985-9.856,12.985
	H546.856c-5.443,0-9.856-5.814-9.856-12.985v-22.071C537,530.52,541.413,524.707,546.856,524.707z"/>
<g>
	<path fill="#9B71FA" d="M583.111,534.579c0-0.099,0-0.199,0-0.298c0.006-0.025,0.015-0.051,0.019-0.076
		c0.082-0.503,0.344-0.867,0.812-1.087c2.169-1.02,4.414-1.82,6.745-2.378c2.121-0.509,4.271-0.815,6.45-0.912
		c0.169-0.008,0.341,0.009,0.507-0.04c0.711,0,1.421,0,2.132,0c0.135,0.049,0.277,0.028,0.415,0.034
		c1.026,0.044,2.049,0.134,3.067,0.27c1.374,0.183,2.732,0.449,4.074,0.797c2.133,0.554,4.194,1.307,6.186,2.25
		c0.331,0.157,0.556,0.408,0.692,0.744c0.049,0.121,0.064,0.25,0.099,0.375c0,0.122,0,0.245,0,0.367
		c-0.049,0.164-0.084,0.331-0.165,0.485c-0.732,1.386-1.539,2.726-2.424,4.019c-1.565,2.285-3.338,4.396-5.317,6.334
		c-0.89,0.872-1.814,1.705-2.775,2.497c-0.315,0.26-0.634,0.516-0.951,0.773c-0.033,0.02-0.068,0.036-0.097,0.059
		c-1.212,0.949-2.475,1.826-3.78,2.643c-0.071,0.044-0.117,0.038-0.183-0.003c-1.056-0.66-2.082-1.363-3.081-2.106
		c-0.266-0.198-0.52-0.412-0.798-0.594c-0.046-0.04-0.091-0.081-0.139-0.119c-1.915-1.508-3.693-3.161-5.33-4.967
		c-2.054-2.266-3.848-4.72-5.353-7.383C583.611,535.721,583.234,535.21,583.111,534.579z"/>
	<path fill="#9B71FA" d="M583.111,534.579c0-0.099,0-0.199,0-0.298c0.006-0.025,0.015-0.051,0.019-0.076
		c0.082-0.503,0.344-0.867,0.812-1.087c2.169-1.02,4.414-1.82,6.745-2.378c2.121-0.509,4.271-0.815,6.45-0.912
		c0.169-0.008,0.341,0.009,0.507-0.04c0.711,0,1.421,0,2.132,0c0.135,0.049,0.277,0.028,0.415,0.034
		c1.026,0.044,2.049,0.134,3.067,0.27c1.374,0.183,2.732,0.449,4.074,0.797c2.133,0.554,4.194,1.307,6.186,2.25
		c0.331,0.157,0.556,0.408,0.692,0.744c0.049,0.121,0.064,0.25,0.099,0.375c0,0.122,0,0.245,0,0.367
		c-0.049,0.164-0.084,0.331-0.165,0.485c-0.732,1.386-1.539,2.726-2.424,4.019c-1.565,2.285-3.338,4.396-5.317,6.334
		c-0.89,0.872-1.814,1.705-2.775,2.497c-0.315,0.26-0.634,0.516-0.951,0.773c-0.033,0.02-0.068,0.036-0.097,0.059
		c-1.212,0.949-2.475,1.826-3.78,2.643c-0.071,0.044-0.117,0.038-0.183-0.003c-1.056-0.66-2.082-1.363-3.081-2.106
		c-0.266-0.198-0.52-0.412-0.798-0.594c-0.046-0.04-0.091-0.081-0.139-0.119c-1.915-1.508-3.693-3.161-5.33-4.967
		c-2.054-2.266-3.848-4.72-5.353-7.383C583.611,535.721,583.234,535.21,583.111,534.579z"/>
	<path fill="#24D1DB" d="M614.31,562.875c0,0.099,0,0.199,0,0.298c-0.007,0.025-0.015,0.05-0.019,0.076
		c-0.082,0.503-0.344,0.867-0.812,1.087c-2.169,1.02-4.414,1.82-6.745,2.378c-2.121,0.509-4.271,0.815-6.45,0.912
		c-0.169,0.007-0.341-0.009-0.507,0.04c-0.711,0-1.421,0-2.132,0c-0.135-0.049-0.277-0.028-0.415-0.034
		c-1.026-0.044-2.049-0.134-3.067-0.27c-1.374-0.183-2.733-0.449-4.075-0.797c-2.133-0.554-4.194-1.307-6.186-2.25
		c-0.331-0.157-0.556-0.408-0.692-0.744c-0.049-0.121-0.064-0.25-0.099-0.375c0-0.122,0-0.245,0-0.367
		c0.049-0.164,0.084-0.331,0.165-0.485c0.732-1.386,1.539-2.726,2.424-4.019c1.565-2.285,3.338-4.396,5.317-6.334
		c0.89-0.872,1.814-1.705,2.775-2.497c0.315-0.26,0.634-0.516,0.951-0.773c0.032-0.02,0.067-0.036,0.097-0.059
		c1.212-0.949,2.475-1.826,3.78-2.643c0.071-0.044,0.117-0.038,0.183,0.003c1.056,0.66,2.082,1.363,3.081,2.105
		c0.266,0.198,0.52,0.412,0.798,0.594c0.046,0.04,0.091,0.081,0.139,0.119c1.915,1.508,3.693,3.161,5.33,4.967
		c2.054,2.266,3.848,4.72,5.353,7.383C613.811,561.733,614.188,562.245,614.31,562.875z"/>
	<path fill="#3632A8" d="M602.678,548.733c0.003-0.002,0.006-0.005,0.009-0.007l-0.004-0.003c-0.278-0.182-0.532-0.397-0.798-0.595
		c-0.999-0.743-2.025-1.446-3.081-2.105c-0.066-0.041-0.113-0.047-0.183-0.003c-1.305,0.817-2.568,1.694-3.78,2.643
		c-0.03,0.023-0.065,0.04-0.097,0.059c-0.003,0.002-0.006,0.005-0.009,0.007c0.001,0.001,0.002,0.002,0.002,0.002
		c0.279,0.183,0.533,0.398,0.799,0.596c0.999,0.743,2.025,1.446,3.081,2.106c0.066,0.041,0.113,0.047,0.183,0.003
		c1.305-0.817,2.568-1.694,3.78-2.643C602.61,548.769,602.645,548.753,602.678,548.733z"/>
</g>
</svg>
