<?xml version="1.0" encoding="utf-8"?>
<!DOCTYPE svg PUBLIC "-//W3C//DTD SVG 1.1//EN" "http://www.w3.org/Graphics/SVG/1.1/DTD/svg11.dtd">
<svg version="1.1" id="Layer_1" xmlns="http://www.w3.org/2000/svg" xmlns:xlink="http://www.w3.org/1999/xlink" x="0px" y="0px"
	 width="1000px" height="1000px" viewBox="0 0 1000 1000" enable-background="new 0 0 1000 1000" xml:space="preserve">
<path fill="#1A1A1A" stroke="#000000" stroke-miterlimit="10" d="M999.5,800.5c0,110.457-89.543,200-200,200h-600
	c-110.457,0-200-89.543-200-200v-600c0-110.457,89.543-200,200-200h600c110.457,0,200,89.543,200,200V800.5z"/>
<g>
	<path fill="#9B71FA" d="M196.801,225.008c0-1.931,0-3.861,0-5.792c0.127-0.494,0.293-0.982,0.375-1.483
		c1.6-9.781,6.688-16.847,15.787-21.128c42.148-19.827,85.799-35.365,131.104-46.227c41.227-9.884,83.004-15.844,125.366-17.719
		c3.28-0.145,6.622,0.169,9.849-0.772c13.812,0,27.624,0,41.436,0c2.627,0.943,5.388,0.548,8.071,0.664
		c19.948,0.861,39.818,2.603,59.604,5.239c26.708,3.558,53.11,8.72,79.193,15.497c41.465,10.772,81.522,25.408,120.238,43.739
		c6.434,3.046,10.805,7.921,13.441,14.464c0.947,2.351,1.238,4.867,1.933,7.28c0,2.376,0,4.753,0,7.129
		c-0.955,3.178-1.629,6.44-3.203,9.419c-14.23,26.933-29.911,52.99-47.12,78.123c-30.414,44.42-64.876,85.44-103.349,123.103
		c-17.304,16.939-35.266,33.136-53.944,48.541c-6.124,5.051-12.316,10.02-18.477,15.026c-0.632,0.382-1.311,0.702-1.888,1.153
		c-23.564,18.446-48.105,35.491-73.469,51.363c-1.371,0.858-2.276,0.74-3.563-0.065c-20.521-12.824-40.461-26.49-59.883-40.923
		c-5.174-3.845-10.107-8.014-15.507-11.555c-0.896-0.772-1.764-1.579-2.692-2.31c-37.218-29.301-71.781-61.448-103.601-96.546
		c-39.924-44.037-74.799-91.745-104.047-143.499C206.512,247.214,199.186,237.265,196.801,225.008z"/>
	<path fill="#9B71FA" d="M196.801,225.008c0-1.931,0-3.861,0-5.792c0.127-0.494,0.293-0.982,0.375-1.483
		c1.6-9.781,6.688-16.847,15.787-21.128c42.148-19.827,85.799-35.365,131.104-46.227c41.227-9.884,83.004-15.844,125.366-17.719
		c3.28-0.145,6.622,0.169,9.849-0.772c13.812,0,27.624,0,41.436,0c2.627,0.943,5.388,0.548,8.071,0.664
		c19.948,0.861,39.818,2.603,59.604,5.239c26.708,3.558,53.11,8.72,79.193,15.497c41.465,10.772,81.522,25.408,120.238,43.739
		c6.434,3.046,10.805,7.921,13.441,14.464c0.947,2.351,1.238,4.867,1.933,7.28c0,2.376,0,4.753,0,7.129
		c-0.955,3.178-1.629,6.44-3.203,9.419c-14.23,26.933-29.911,52.99-47.12,78.123c-30.414,44.42-64.876,85.44-103.349,123.103
		c-17.304,16.939-35.266,33.136-53.944,48.541c-6.124,5.051-12.316,10.02-18.477,15.026c-0.632,0.382-1.311,0.702-1.888,1.153
		c-23.564,18.446-48.105,35.491-73.469,51.363c-1.371,0.858-2.276,0.74-3.563-0.065c-20.521-12.824-40.461-26.49-59.883-40.923
		c-5.174-3.845-10.107-8.014-15.507-11.555c-0.896-0.772-1.764-1.579-2.692-2.31c-37.218-29.301-71.781-61.448-103.601-96.546
		c-39.924-44.037-74.799-91.745-104.047-143.499C206.512,247.214,199.186,237.265,196.801,225.008z"/>
	<path fill="#24D1DB" d="M803.199,774.992c0,1.931,0,3.861,0,5.792c-0.127,0.494-0.293,0.982-0.375,1.483
		c-1.6,9.781-6.688,16.847-15.787,21.128c-42.148,19.827-85.799,35.365-131.104,46.227c-41.227,9.884-83.004,15.844-125.366,17.719
		c-3.28,0.145-6.622-0.169-9.849,0.772c-13.812,0-27.624,0-41.436,0c-2.627-0.943-5.388-0.548-8.071-0.664
		c-19.948-0.861-39.818-2.603-59.604-5.239c-26.708-3.558-53.11-8.72-79.193-15.497c-41.465-10.773-81.522-25.408-120.238-43.739
		c-6.434-3.046-10.805-7.921-13.441-14.464c-0.947-2.351-1.238-4.867-1.933-7.28c0-2.376,0-4.753,0-7.129
		c0.955-3.178,1.629-6.44,3.203-9.419c14.23-26.933,29.911-52.99,47.12-78.123c30.414-44.42,64.876-85.44,103.349-123.103
		c17.304-16.939,35.266-33.136,53.944-48.541c6.124-5.051,12.316-10.02,18.477-15.026c0.632-0.382,1.311-0.702,1.888-1.153
		c23.564-18.446,48.105-35.491,73.469-51.363c1.371-0.858,2.276-0.74,3.563,0.065c20.521,12.824,40.461,26.49,59.883,40.923
		c5.174,3.845,10.107,8.014,15.507,11.555c0.896,0.772,1.764,1.579,2.692,2.31c37.218,29.301,71.781,61.448,103.601,96.546
		c39.924,44.036,74.799,91.745,104.047,143.499C793.488,752.786,800.814,762.735,803.199,774.992z"/>
	<path fill="#3632A8" d="M577.106,500.112c0.056-0.046,0.113-0.091,0.169-0.137l-0.069-0.061c-5.4-3.541-10.333-7.71-15.507-11.555
		c-19.422-14.433-39.363-28.099-59.883-40.923c-1.287-0.804-2.191-0.923-3.563-0.065c-25.365,15.872-49.905,32.917-73.469,51.363
		c-0.577,0.452-1.257,0.772-1.888,1.153c-0.056,0.046-0.113,0.091-0.169,0.137c0.023,0.02,0.046,0.041,0.046,0.041
		c5.423,3.561,10.357,7.73,15.531,11.575c19.422,14.433,39.363,28.099,59.883,40.923c1.287,0.804,2.191,0.923,3.563,0.065
		c25.365-15.872,49.905-32.917,73.469-51.363C575.794,500.814,576.474,500.494,577.106,500.112z"/>
</g>
</svg>
